<svg width="140" height="137" viewBox="0 0 140 137" fill="none" xmlns="http://www.w3.org/2000/svg">
<path d="M6.346 136.99C4.63 136.99 3.244 136.726 2.188 136.198C1.132 135.802 0.604 135.208 0.604 134.416C0.604 133.492 1.132 132.7 2.188 132.04C3.376 131.248 5.026 130.522 7.138 129.862C10.57 128.806 13.738 127.222 16.642 125.11C19.546 122.998 22.054 119.5 24.166 114.616C27.862 106.168 31.228 98.248 34.264 90.856C37.432 83.464 40.402 76.204 43.174 69.076C45.946 61.948 48.784 54.556 51.688 46.9C54.724 39.112 57.892 30.664 61.192 21.556C61.852 19.708 62.446 17.86 62.974 16.012C63.502 14.164 63.832 12.184 63.964 10.072C65.152 9.67599 66.34 9.27999 67.528 8.884C68.716 8.48799 69.904 7.89399 71.092 7.102C72.28 6.31 73.072 5.122 73.468 3.53799C73.996 1.95399 74.458 0.897989 74.854 0.369988C74.986 0.237989 75.118 0.17199 75.25 0.17199C75.514 0.17199 75.712 0.303993 75.844 0.567997C76.108 1.096 76.306 1.756 76.438 2.548C76.702 3.33999 76.966 4.13199 77.23 4.92399C80.398 14.956 83.698 25.186 87.13 35.614C90.562 46.042 93.862 56.14 97.03 65.908C100.33 75.544 103.3 84.256 105.94 92.044C108.712 99.7 110.89 105.904 112.474 110.656C114.322 115.936 116.302 119.896 118.414 122.536C120.526 125.176 122.704 127.024 124.948 128.08C127.324 129.136 129.832 129.928 132.472 130.456C134.716 130.852 136.366 131.512 137.422 132.436C138.478 133.228 139.006 134.086 139.006 135.01C139.006 135.802 138.478 136.33 137.422 136.594C136.366 136.858 134.98 136.99 133.264 136.99C131.416 136.99 128.908 136.858 125.74 136.594C122.572 136.462 119.206 136.264 115.642 136C112.078 135.868 108.778 135.802 105.742 135.802C103.234 135.802 100.66 135.802 98.02 135.802C95.38 135.802 92.938 135.868 90.694 136C88.45 136 86.536 136 84.952 136C83.236 136 81.85 135.802 80.794 135.406C79.738 135.01 79.21 134.416 79.21 133.624C79.21 132.7 79.87 131.908 81.19 131.248C82.51 130.588 84.028 130.126 85.744 129.862C90.1 129.202 93.202 128.08 95.05 126.496C96.898 124.912 97.822 123.064 97.822 120.952C97.822 118.972 97.36 116.134 96.436 112.438C95.644 108.61 94.654 104.584 93.466 100.36C92.278 96.004 91.156 92.176 90.1 88.876C89.836 87.82 89.308 87.226 88.516 87.094C87.856 86.83 86.602 86.698 84.754 86.698H47.332C46.804 86.698 46.21 86.962 45.55 87.49C45.022 87.886 44.494 88.81 43.966 90.262C43.57 91.582 42.91 93.694 41.986 96.598C41.062 99.37 40.138 102.34 39.214 105.508C38.29 108.676 37.498 111.514 36.838 114.022C36.178 116.53 35.848 118.114 35.848 118.774C35.848 121.678 36.97 124.12 39.214 126.1C41.458 127.948 44.164 129.268 47.332 130.06C51.688 131.248 53.866 132.568 53.866 134.02C53.866 134.812 53.338 135.406 52.282 135.802C51.226 136.066 49.84 136.198 48.124 136.198C46.408 136.198 43.9 136.132 40.6 136C37.3 135.868 33.802 135.802 30.106 135.802C25.75 135.802 21.526 136 17.434 136.396C13.342 136.792 9.646 136.99 6.346 136.99ZM52.678 80.164H83.368C85.216 80.164 86.14 79.834 86.14 79.174C86.14 78.91 86.074 78.646 85.942 78.382C85.942 77.986 85.876 77.59 85.744 77.194L70.3 28.882C69.508 26.506 68.914 25.318 68.518 25.318C68.254 25.318 67.726 26.44 66.934 28.684L48.916 77.194C48.652 77.986 48.52 78.514 48.52 78.778C48.52 79.438 48.85 79.834 49.51 79.966C50.302 80.098 51.358 80.164 52.678 80.164Z" fill="#505050"/>
</svg>
